<svg version="1" xmlns="http://www.w3.org/2000/svg" width="344" height="344" viewBox="0 0 258.000000 258.000000"><path d="M109.5 2c-10.2 2.1-10.7 2.2-14 3.4-1.1.5-3.3 1.2-5 1.8-3.6 1.2-11.8 5-12.5 5.8-.3.3-3.5 2.2-7.3 4-13.7 7.1-27 18.5-35.9 31-7.5 10.6-15.7 28-17.3 36.7-.2 1.6-.9 4.4-1.5 6.3-1.9 6.6-2.5 13.5-2.4 30.5 0 14.9.3 18.2 2.6 27 5.8 22.4 14.2 37.7 29.1 52.7 16.8 17 29.2 24.3 50.8 30.2 11.6 3.2 30.2 4.4 48.7 3.1 6.8-.5 6.8 1.2-.1 4.5-4.8 2.4-5.4 3.1-7.3 8.5-2.2 6.3-2.5 9.6-.9 10.2.6.2 1.1-1.1 1.1-2.8.3-5.5 3.3-11.7 6.8-13.9 4.9-3 6.8-2.7 5.6.7-.6 1.6-1.6 3.9-2.2 5.2-1.1 2-1 2.6 1.1 4.2 4.4 3.6 15 2 20.4-3 5-4.6 5.3-5.9 1.8-8.8-2.2-1.9-3-3.2-2.5-4.5.3-1 0-2.6-.7-3.4-.6-.8-1-1.6-.8-1.8.2-.1 3.3-1.9 6.9-3.8 12.5-6.9 25.1-17 41-32.8 21.9-21.8 33.2-41.9 32.5-58.2-.3-5.6-1.8-9.7-5.9-15.8-2.7-4-3-5.3-3.2-12.5 0-4.4-.6-10.8-1.3-14.2-.7-3.5-1.4-7.5-1.7-9-1.4-7.9-9.5-26.2-15.5-34.9-6.3-9.1-29-29.4-32.9-29.4-.6 0-1-.3-1-.8 0-.4-.9-1.2-2-1.7-1-.6-5-2.6-8.7-4.6C166.7 7.3 154 3.4 143 2 133.3.8 115.4.8 109.5 2z"/></svg>